PathFileType	4	(X/Y/Z)	TVC_39_BWA_06_walk_RCNL2025.trc
DataRate	CameraRate	NumFrames	NumMarkers	Units	OrigDataRate	OrigDataStartFrame	OrigNumFrames
100	100	7	27	mm	100	560	1118
Frame#	Time	R_Shoulder			L_Shoulder			C7			J_Notch			R_Elbow			L_Elbow			R_Wrist			L_Wrist			R_Asis			L_Asis			R_Psis			L_Psis			Sacral			Thoracic			Sternum			R_Thigh_Lateral			R_Knee_Lateral			R_Shank_Lateral			R_Ankle_Lateral			R_Heel			R_Toe			L_Thigh_Lateral			L_Knee_Lateral			L_Shank_Lateral			L_Ankle_Lateral			L_Heel			L_Toe		
		X1	Y1	Z1	X2	Y2	Z2	X3	Y3	Z3	X4	Y4	Z4	X5	Y5	Z5	X6	Y6	Z6	X7	Y7	Z7	X8	Y8	Z8	X9	Y9	Z9	X10	Y10	Z10	X11	Y11	Z11	X12	Y12	Z12	X13	Y13	Z13	X14	Y14	Z14	X15	Y15	Z15	X16	Y16	Z16	X17	Y17	Z17	X18	Y18	Z18	X19	Y19	Z19	X20	Y20	Z20	X21	Y21	Z21	X22	Y22	Z22	X23	Y23	Z23	X24	Y24	Z24	X25	Y25	Z25	X26	Y26	Z26	X27	Y27	Z27
560	5.59000000	-151.187378	1452.907959	509.664062	-134.584076	1492.485840	157.239990	-177.593140	1527.242188	330.388885	-38.941612	1390.230835	325.048309	-116.004272	1145.255371	640.945129	-237.654205	1195.958984	28.537594	-3.109769	917.948761	602.736481	-140.984539	952.544952	12.940929	-125.095757	923.645386	448.894775	-113.827095	918.001953	153.623535	-318.862976	956.486938	349.494690	-315.945282	943.488770	242.221664	-317.404129	949.987854	295.858177	-296.323395	1206.682983	300.630219	-7.523944	1226.307373	330.807251	-160.939224	733.174988	535.587097	-114.046921	469.604889	469.902924	-188.205887	292.866852	521.487488	-227.687286	75.296585	422.082428	-269.189636	61.684101	366.969147	-88.008965	45.404354	439.983185	-98.068993	700.945068	60.551800	16.613945	500.237030	111.306740	-24.608612	369.138031	48.311287	-79.833054	105.590523	121.752762	-127.334076	91.515465	177.156021	57.998287	56.071697	122.466370
561	5.60000000	-150.704376	1451.998169	508.259918	-131.909317	1490.751465	155.674362	-176.216187	1526.026367	328.681335	-37.402927	1389.073975	324.358459	-114.063805	1144.530762	639.782837	-232.864059	1193.611450	26.764891	0.026191	917.769226	602.298950	-136.056946	950.296936	11.782395	-122.588936	923.138489	448.929108	-109.709137	916.710449	153.604095	-316.083313	954.345703	348.282867	-312.517120	941.118896	241.046417	-314.300217	947.732300	294.664642	-294.262299	1205.129028	298.788940	-5.764888	1225.385010	330.613495	-157.173004	732.469849	535.464478	-110.125824	468.454010	470.254639	-185.502228	292.143005	521.472107	-227.357437	75.316032	421.854034	-268.988098	61.919022	366.976593	-87.989265	45.379173	439.940216	-90.899612	699.935669	61.192532	19.314367	497.008514	113.712128	-20.405811	365.283081	49.549084	-73.064194	100.659500	121.661957	-120.851921	85.815224	176.699982	65.502098	53.148537	122.766304
562	5.61000000	-150.369705	1451.105103	506.760895	-129.379700	1489.039551	153.998413	-174.934372	1524.844849	326.860291	-35.917416	1388.019409	323.565643	-112.284828	1143.794434	638.493530	-228.140656	1191.210938	24.961445	3.062415	917.610657	601.801727	-131.060089	948.059021	10.622000	-119.952698	922.686584	448.891479	-105.454910	915.430847	153.538254	-313.182495	952.219910	347.002075	-308.958893	938.750549	239.789825	-311.070694	945.485229	293.395950	-292.154388	1203.572144	296.839294	-4.001952	1224.569702	330.307861	-153.100616	731.817749	535.226685	-106.224739	467.296906	470.520782	-182.852814	291.418243	521.401917	-227.037949	75.339073	421.608765	-268.784729	62.153034	366.958588	-87.984497	45.346584	439.895569	-83.910538	698.422302	61.844948	22.016661	493.551392	116.236229	-16.742523	361.431976	51.084972	-68.165794	96.273140	122.027557	-116.303970	80.808510	176.722824	70.876343	50.521370	123.408508
563	5.62000000	-150.160385	1450.249146	505.173279	-126.984016	1487.377930	152.218735	-173.731110	1523.719971	324.935699	-34.471371	1387.087524	322.670593	-110.672516	1143.063843	637.080994	-223.492630	1188.793457	23.139107	5.982666	917.486450	601.237976	-126.011265	945.862183	9.464011	-117.197929	922.296570	448.779572	-101.091431	914.192261	153.420227	-310.170807	950.146667	345.667084	-305.289032	936.431885	238.469025	-307.729919	943.289276	292.068054	-289.994110	1202.039673	294.796234	-2.225423	1223.879517	329.886383	-148.782867	731.210327	534.872986	-102.375458	466.148346	470.687500	-180.274551	290.708893	521.269836	-226.728912	75.367645	421.347961	-268.581268	62.385536	366.912567	-87.991051	45.309517	439.847809	-77.355217	696.376831	62.510872	24.733355	489.975372	118.834908	-13.595180	357.685516	52.882195	-64.910309	92.417801	122.800636	-113.437233	76.438942	177.181183	74.401268	48.262527	124.303329
564	5.63000000	-150.050308	1449.452637	503.503815	-124.708763	1485.794312	150.342316	-172.588852	1522.674316	322.918365	-33.050495	1386.298340	321.674713	-109.230179	1142.357544	635.549316	-218.926086	1186.396362	21.308578	8.770468	917.409607	600.600433	-120.929108	943.736969	8.312222	-114.336639	921.974915	448.591217	-96.646774	913.026062	153.243774	-307.059723	948.163269	344.292969	-301.527405	934.212097	237.101837	-304.293564	941.187683	290.697403	-287.776855	1200.558960	292.676483	-0.425533	1223.331299	329.346466	-144.289978	730.638184	534.405334	-98.611076	465.023865	470.741333	-177.781601	290.030518	521.070007	-226.429474	75.403748	421.073303	-268.379395	62.615517	366.837097	-88.003487	45.272022	439.794983	-71.447792	693.819580	63.180073	27.464909	486.390198	121.452141	-10.916944	354.134949	54.880127	-63.007027	89.072121	123.904099	-111.931465	72.652061	177.997299	76.414696	46.413162	125.360313
565	5.64000000	-150.010956	1448.737915	501.759918	-122.538742	1484.315918	148.376801	-171.489517	1521.729736	320.819702	-31.640244	1385.670776	320.580139	-107.959190	1141.694336	633.903076	-214.444794	1184.057617	19.479279	11.409496	917.392395	599.881561	-115.833118	941.712708	7.169824	-111.381615	921.727539	448.324249	-92.149178	911.964050	153.002426	-303.861633	946.306030	342.894348	-297.694519	932.140076	235.705795	-300.778076	939.223053	289.300072	-285.498901	1199.157349	290.498474	1.407280	1222.941528	328.686951	-139.698608	730.092590	533.828125	-94.966309	463.939636	470.669891	-175.387268	289.397827	520.798584	-226.138412	75.449333	420.786713	-268.181030	62.841434	366.731964	-88.015312	45.238918	439.734924	-66.340500	690.821289	63.830605	30.200480	482.900909	124.020592	-8.639977	350.858124	56.996571	-62.133984	86.212250	125.239174	-111.436295	69.404343	179.067230	77.278656	44.981598	126.493805
566	5.65000000	-150.012009	1448.127563	499.949585	-120.457710	1482.968384	146.330551	-170.414902	1520.907104	318.651703	-30.226202	1385.221680	319.390015	-106.858910	1141.093750	632.147339	-210.050659	1181.814453	17.659220	13.884015	917.446106	599.073914	-110.743176	939.817139	6.039323	-108.345985	921.559570	447.976624	-87.626152	911.037720	152.689987	-300.589478	944.609436	341.484558	-293.810974	930.262268	234.297089	-297.200226	937.435852	287.890823	-283.157654	1197.860718	288.281738	3.282094	1222.724609	327.908417	-135.088394	729.567566	533.147156	-91.477356	462.912323	470.462555	-173.106079	288.824585	520.453369	-225.854507	75.506172	420.490448	-267.988220	63.061249	366.598022	-88.019859	45.215294	439.665588	-62.109283	687.499268	64.429558	32.918602	479.603485	126.464104	-6.683167	347.916046	59.132950	-61.972252	83.814812	126.694038	-111.609703	66.666695	180.272461	77.344872	43.946560	127.625488
